# xmcd
#
# Track frame offsets:
# 150
# 32239
# 46284
# 63889
# 80640
#
# Disc length: 1241 seconds
#
# Revision: 0
# Processed by: cddbd v1.4PL0 Copyright (c) Steve Scherf et al.
# Submitted via: Audion 3.0.2 (http://www.panic.com/audion/)
#
DISCID=3a04d705
DTITLE=Irving - I Hope You're Feeling Better Now EP
DYEAR=1900
DGENRE=
TTITLE0=The Curious Thing About Leather
TTITLE1=The Guns from Here
TTITLE2=White Hot
TTITLE3=I Can't Fall in Love
TTITLE4=Please Give Me Your Heart, Is All I Need
EXTD=
EXTT0=
EXTT1=
EXTT2=
EXTT3=
EXTT4=
PLAYORDER=
